PathFileType	4	(X/Y/Z)	34_2_65_p1_0-891.trc
DataRate	CameraRate	NumFrames	NumMarkers	Units	OrigDataRate	OrigDataStartFrame	OrigNumFrames
59.0	59.0	5	27	m	59.0	780	892
Frame#	Time	RHip			RKnee			RAnkle			RBigToe			RSmallToe			RHeel			LHip			LKnee			LAnkle			LBigToe			LSmallToe			LHeel			Neck			Head			Nose			RShoulder			RElbow			RWrist			RThumb			RIndex			RPinky			LShoulder			LElbow			LWrist			LThumb			LIndex			LPinky			
		X1	Y1	Z1	X2	Y2	Z2	X3	Y3	Z3	X4	Y4	Z4	X5	Y5	Z5	X6	Y6	Z6	X7	Y7	Z7	X8	Y8	Z8	X9	Y9	Z9	X10	Y10	Z10	X11	Y11	Z11	X12	Y12	Z12	X13	Y13	Z13	X14	Y14	Z14	X15	Y15	Z15	X16	Y16	Z16	X17	Y17	Z17	X18	Y18	Z18	X19	Y19	Z19	X20	Y20	Z20	X21	Y21	Z21	X22	Y22	Z22	X23	Y23	Z23	X24	Y24	Z24	X25	Y25	Z25	X26	Y26	Z26	X27	Y27	Z27	
780	13.220338983050848	0.3979367203261027	0.44654821281030443	0.9351944756772869	0.4052120943835326	0.628525394571191	1.376790619298967	0.37383039866559403	0.7374174930239273	1.736000447329273	0.3337529025065007	0.5428148951210588	1.7759960596470692	0.40050738529548735	0.5860737853750505	1.7896174668601512	0.34788659462456345	0.8641117529430299	1.8035660716427087	0.18112251666632137	0.4784704761080949	0.9552236122901602	0.1610973902922069	0.6429632958451326	1.3779332892723641	0.18227927194607924	0.7491713821963176	1.7537085455721118	0.19302441714347682	0.5436394395108095	1.7687878031438524	0.14023055476671314	0.600034923592885	1.7839432953657537	0.18902663124687294	0.8059145196447022	1.8012391097911098	0.2778668057308147	0.3264657838702737	0.46998336193369744	0.27832204118987486	0.16926801298969432	0.22801620550020624	0.2787098935520235	0.17659401266326527	0.4031124552738497	0.43074994654208054	0.3512331715128014	0.5040401201249469	0.4497079467358575	0.3167314748204623	0.7287383812153215	0.33271607622668464	0.04955048360676282	0.7606737792984073	0.26716537941689494	-0.03772562007542564	0.723234692923808	0.2628104883922451	-0.04611154317606	0.7532896755529721	0.2702843298822828	-0.0377844289070485	0.8104763165432596	0.11645291604080112	0.3495500524043724	0.5104012539810427	0.08676291974688484	0.3364944896997587	0.732736767459345	0.20979422661526348	0.03890722229381655	0.7660721740059967	0.26590999870330967	-0.037357282949798114	0.7315610606340393	0.2699522211759796	-0.05276213939849939	0.7536502532724995	0.2684312143445173	-0.03194364100948831	0.8071883671313344
781	13.23728813559322	0.39797109023449245	0.4463264982987902	0.9356113956570918	0.4052971206712009	0.6285477414646716	1.3768304052662999	0.374875031180548	0.7404338883676225	1.741299700912176	0.3338043074905317	0.5433346542883263	1.7761595809543929	0.40460243373041455	0.5700652662128378	1.7833690605116024	0.3478861117187142	0.8639685457219834	1.8036728238659365	0.17681658443843845	0.4778070353122434	0.9559267017634796	0.16248101207280258	0.6402320228314915	1.3773134429290441	0.18229059942972908	0.749318917611724	1.753837294695852	0.1930125669460368	0.5437195787404072	1.7690282961345876	0.14023655917198743	0.6004371286894357	1.7841906331566453	0.18884987523520014	0.8058532816034774	1.801234733533956	0.2774560114267245	0.3272363426607151	0.4661338177205656	0.27831670555717575	0.1689789341336716	0.22794370907632264	0.2786441574026561	0.17643629964211888	0.40301896355795797	0.43078808658686957	0.35135944879301606	0.5041918965657554	0.4539449630868796	0.32799698904945745	0.7259184939536504	0.34011997542885514	0.06292687824430042	0.7649900959565391	0.2680820089663442	-0.03833555861582888	0.7315326154622579	0.27072047088538165	-0.05592875519766694	0.7523490978162914	0.2812765560650751	-0.03918287777109782	0.8118714933496718	0.11657346135934352	0.3520449287928989	0.5142034437683876	0.08543415490199538	0.3380592292556014	0.737380604494371	0.21167036927318789	0.04611090022101207	0.7700218206543645	0.2627315736783069	-0.041126326290876696	0.7402799130751486	0.26334264533116	-0.05891968750554743	0.7561504167667479	0.2684131703279692	-0.033311694339499716	0.8124708874742446
782	13.254237288135593	0.398066789927239	0.4463508337960557	0.9364432596036592	0.40531706992455724	0.6282718174124509	1.376822487769042	0.3748664928292912	0.7404310573742993	1.741185190150806	0.337284386386743	0.5555903771764353	1.7805888215820143	0.4045922917767984	0.5698437898988037	1.783262721374334	0.3479141997274388	0.8640878942854814	1.8034109261894649	0.17590168723768368	0.4791776420263313	0.9602407499472233	0.16150107747262576	0.6417197358238781	1.3817483801748003	0.18221751056793623	0.749351537875689	1.7538539591783242	0.19298266225438832	0.5436819373828946	1.7687541265787277	0.1402142083819547	0.6000454977048051	1.783888070132964	0.18852264268858418	0.8052801127973847	1.8010268526127629	0.2777541102482767	0.3263878803233057	0.46296925579560977	0.27818065315967994	0.16906020808185487	0.2279401432216297	0.27869701677722586	0.17610240906704894	0.39980449602122353	0.4349023780932785	0.3403580695487813	0.5082302531180881	0.45910611363430226	0.3306189817549921	0.7370070133011777	0.3432711050989842	0.07284896118012896	0.7627837479505752	0.26798121412485304	-0.03554188299671524	0.7271709050483218	0.270825538895789	-0.05593463405990839	0.752352861054413	0.2812484324344222	-0.03841545068852321	0.8118010239978175	0.1163929699719178	0.35004580455766293	0.5107077043192542	0.08074326026772577	0.35173345929306093	0.7376331281065511	0.20526073837245593	0.05013384443783543	0.7700241056151198	0.26142788535866057	-0.02799873339328375	0.7402369507301685	0.25600957198968594	-0.058030060646376724	0.7574222644068459	0.2689356957865939	-0.03244459767805499	0.8183298576275437
783	13.271186440677965	0.3980584422992599	0.4499174007176393	0.9441270063304094	0.40539489122716854	0.6280097353201997	1.3770487001590332	0.37489196978267486	0.7404018747674469	1.7412175712084463	0.333530141426342	0.5422195167192033	1.7757132685747161	0.4043996768365174	0.5691469056061643	1.7830083421975076	0.3491231481326241	0.8676226219670699	1.8091910329523302	0.17160351072837018	0.4788900226006076	0.9603876902335816	0.16117194131739165	0.6430266302605725	1.3780412776567386	0.18228755068138702	0.7492826363771438	1.7538950452313429	0.19299990238650144	0.5434299729535962	1.7687953869021475	0.14030762495790836	0.5998320563459708	1.783884508998682	0.18880029799296758	0.8058435792410065	1.801328476725456	0.2778038267304133	0.3262981504970316	0.462906513757601	0.27453372558644384	0.1794176840897067	0.2238146649535543	0.2788587141569583	0.17561742165082722	0.39669523990225053	0.4347568358071357	0.34111317639947525	0.511665861871062	0.4679924429604343	0.3448341977433523	0.7418143471267095	0.3470878036037789	0.07462033912705211	0.7659016021592029	0.2786296886529934	-0.036321224568208174	0.7387944401085741	0.27148520160721995	-0.05608508276349636	0.7528725850661095	0.28222973984415084	-0.037664152413582994	0.8184898337560036	0.1163374058038767	0.350237331242076	0.5109914995616262	0.08090213168402823	0.35365775333517147	0.7416907587532472	0.2009372409721125	0.06094602222872143	0.7710819027756227	0.2584960920515447	-0.03564574120482009	0.7469877291487298	0.2604306310867107	-0.06665850011219368	0.7583879085031056	0.2663707773103817	-0.04093534919567277	0.818106802197409
784	13.288135593220339	0.3974786961510919	0.45100006624880423	0.9481977392553124	0.40553238646523126	0.6280879663000467	1.3774766293585838	0.38281964420215475	0.7341397824973005	1.7384544699210815	0.3370059346908898	0.5537079450066515	1.7834625706923153	0.40418833678366506	0.5682345109350034	1.7862367110809603	0.3485332272854883	0.8632234905618652	1.8068039171337409	0.17092716466609711	0.4808301417144879	0.9640276914298039	0.16146544149456984	0.6416355543180144	1.3820446021297645	0.18692402051070187	0.7513792422765317	1.7542218810728978	0.19673653374900416	0.5561822926050533	1.76947374331176	0.1402714876376452	0.6004183750520355	1.7839960781367472	0.18863760214418482	0.8057700957196003	1.8011417321628556	0.28165272578483075	0.3142768187835794	0.4632538530558856	0.27423946123058346	0.18045760890158283	0.22377043378075973	0.2788666360006754	0.1729310626401529	0.39008168090797185	0.4352162730516855	0.34342669934704323	0.5153246190132645	0.4720673632353746	0.3318913971011521	0.7450504958950671	0.3539148132307639	0.09785145888751476	0.7707609088327668	0.2816431312131846	-0.026921812410904467	0.7450650973108259	0.2780043177780603	-0.04633946342556245	0.7570683710355044	0.2883012093774947	-0.025053958182204215	0.8203496782050292	0.11662809798865025	0.35209141173398817	0.5143936225783534	0.08436127859268426	0.36918130022782336	0.7528358671674689	0.19248647102042385	0.07050225730551368	0.7719517004844973	0.2543875750036136	-0.0372703969079999	0.7504877230183313	0.2411770363576491	-0.0824921830175724	0.7636344278946571	0.2506272030484842	-0.012466853203243323	0.8249396001984295
